<?xml version="1.0" standalone="no"?>
<!DOCTYPE svg PUBLIC "-//W3C//DTD SVG 20010904//EN"
 "http://www.w3.org/TR/2001/REC-SVG-20010904/DTD/svg10.dtd">
<svg version="1.0" xmlns="http://www.w3.org/2000/svg"
 width="66.000000pt" height="61.000000pt" viewBox="0 0 66.000000 61.000000"
 preserveAspectRatio="xMidYMid meet">
<metadata>
Created by potrace 1.10, written by Peter Selinger 2001-2011
</metadata>
<g transform="translate(0.000000,61.000000) scale(0.100000,-0.100000)"
fill="#000000" stroke="none">
<path d="M390 436 c0 -75 2 -86 18 -86 15 0 17 10 15 82 -1 67 -4 84 -17 86
-14 3 -16 -9 -16 -82z"/>
<path d="M258 494 c-9 -9 8 -88 20 -92 18 -6 16 84 -2 91 -8 3 -16 4 -18 1z"/>
<path d="M210 420 c0 -29 4 -40 15 -40 11 0 15 11 15 40 0 29 -4 40 -15 40
-11 0 -15 -11 -15 -40z"/>
<path d="M300 406 c0 -44 3 -56 16 -56 12 0 14 10 12 52 -4 74 -28 77 -28 4z"/>
<path d="M350 361 c0 -57 3 -71 15 -71 13 0 15 12 13 67 -2 42 -8 68 -15 71
-10 3 -13 -15 -13 -67z"/>
<path d="M144 248 c-4 -6 1 -17 11 -25 18 -13 18 -13 0 -13 -15 0 -16 -3 -7
-12 9 -9 16 -8 29 5 15 15 15 17 0 23 -9 3 -17 10 -17 16 0 5 5 6 10 3 6 -3
10 -1 10 4 0 15 -27 14 -36 -1z"/>
<path d="M208 248 c7 -7 12 -20 12 -30 0 -10 5 -18 10 -18 6 0 10 8 10 18 0
10 5 23 12 30 9 9 4 12 -22 12 -26 0 -31 -3 -22 -12z"/>
<path d="M281 247 c-24 -29 17 -70 46 -46 20 17 12 53 -13 57 -11 2 -26 -3
-33 -11z"/>
<path d="M372 248 c-7 -7 -12 -18 -12 -25 0 -18 33 -33 51 -22 11 7 9 9 -8 9
-14 0 -23 6 -23 15 0 8 9 15 20 15 11 0 20 5 20 10 0 14 -33 13 -48 -2z"/>
<path d="M449 260 c-5 -26 -3 -60 3 -60 4 0 8 5 8 12 0 6 9 3 20 -7 21 -19 29
-8 8 13 -8 8 -8 15 2 27 8 9 8 15 2 15 -6 0 -14 -5 -18 -11 -4 -8 -9 -7 -15 2
-5 8 -9 12 -10 9z"/>
<path d="M60 139 c0 -5 4 -9 9 -9 4 0 6 -11 3 -25 -2 -15 0 -25 7 -25 6 0 11
11 11 25 0 14 5 25 10 25 6 0 10 4 10 9 0 5 -11 9 -25 9 -14 0 -25 -4 -25 -9z"/>
<path d="M137 143 c-11 -10 -8 -63 3 -63 6 0 10 5 10 11 0 8 4 8 14 0 11 -9
15 -6 18 14 4 18 0 29 -13 35 -21 12 -24 12 -32 3z"/>
<path d="M216 118 c-7 -18 -11 -35 -8 -38 3 -3 7 1 9 8 3 6 11 12 18 12 7 0
15 -6 18 -12 2 -7 7 -10 11 -6 7 6 -20 68 -29 68 -3 0 -11 -15 -19 -32z"/>
<path d="M300 135 c-17 -21 -8 -50 18 -53 12 -2 22 1 22 7 0 6 -9 11 -20 11
-26 0 -26 20 0 27 11 3 17 9 14 14 -8 13 -20 11 -34 -6z"/>
<path d="M371 115 c0 -28 2 -36 8 -26 8 12 12 12 25 2 18 -15 22 -1 5 16 -8 8
-8 13 0 17 6 4 11 12 11 18 0 6 -9 3 -19 -6 -18 -17 -19 -17 -24 1 -3 10 -5 0
-6 -22z"/>
<path d="M457 143 c-4 -3 -7 -19 -7 -35 0 -23 4 -28 25 -28 31 0 32 8 3 20
-21 8 -22 9 -3 10 20 1 20 1 0 10 -17 7 -17 9 -2 9 9 1 17 6 17 11 0 11 -23
14 -33 3z"/>
<path d="M527 143 c-11 -10 -8 -63 3 -63 6 0 10 5 10 11 0 8 4 8 14 0 11 -9
15 -6 18 14 4 18 0 29 -13 35 -21 12 -24 12 -32 3z"/>
</g>
</svg>
